<svg xmlns="http://www.w3.org/2000/svg" width="64" height="64" viewBox="0 0 64 64" fill="none">
  <rect width="64" height="64" rx="18" fill="url(#bg)" />
  <path d="M15.6 46V16.8h13c6.8 0 10.8 3.7 10.8 9.6S35.4 36 28.6 36h-4.9v10h-8.1Zm8.1-16.4H28c2.4 0 3.8-1.2 3.8-3.2 0-2.1-1.4-3.2-3.8-3.2h-4.3v6.4Z" fill="#fff"/>
  <path d="M38.1 46V35.8L27.9 16.8h8.6l5.6 11.4 5.7-11.4h8L45.9 35.7V46h-7.8Z" fill="#7ED0AD"/>
  <rect x="1" y="1" width="62" height="62" rx="17" stroke="rgba(255,255,255,.18)" stroke-width="2"/>
  <defs>
    <linearGradient id="bg" x1="9" y1="7" x2="55" y2="58" gradientUnits="userSpaceOnUse">
      <stop stop-color="#2D527E"/>
      <stop offset=".55" stop-color="#1C365A"/>
      <stop offset="1" stop-color="#081427"/>
    </linearGradient>
  </defs>
</svg>